<?xml version="1.0" encoding="UTF-8"?>
<svg xmlns="http://www.w3.org/2000/svg" xmlns:xlink="http://www.w3.org/1999/xlink" width="1133.52pt" height="708.65pt" viewBox="0 0 1133.52 708.65" version="1.1">
<defs>
<clipPath id="clip1">
  <path d="M 0 0 L 1133.519531 0 L 1133.519531 708.648438 L 0 708.648438 Z M 0 0 "/>
</clipPath>
</defs>
<g id="surface1">
<path style=" stroke:none;fill-rule:nonzero;fill:rgb(65.881348%,30.195618%,5.882263%);fill-opacity:1;" d="M 124.175781 608.277344 L 137.347656 608.277344 C 141.949219 608.277344 147.121094 606.304688 147.121094 600.472656 C 147.121094 594.179688 140.074219 593.136719 135.269531 593.136719 L 124.175781 593.136719 Z M 124.175781 580.726563 L 134.804688 580.726563 C 139.308594 580.726563 144.027344 578.839844 144.027344 573.472656 C 144.027344 567.933594 138.753906 566.515625 134.144531 566.515625 L 124.175781 566.515625 Z M 109.496094 554.101563 L 134.339844 554.101563 C 145.980469 554.101563 158.695313 556.539063 158.695313 571.03125 C 158.695313 578.46875 154.082031 583.53125 147.21875 585.703125 L 147.21875 585.886719 C 155.960938 587.015625 161.800781 593.511719 161.800781 602.160156 C 161.800781 616.09375 148.628906 620.691406 136.773438 620.691406 L 109.496094 620.691406 "/>
<path style=" stroke:none;fill-rule:nonzero;fill:rgb(65.881348%,30.195618%,5.882263%);fill-opacity:1;" d="M 193.878906 600.664063 C 189.558594 600.664063 179.960938 601.046875 179.960938 607.246094 C 179.960938 610.636719 183.53125 612.226563 186.640625 612.226563 C 192.191406 612.226563 197.363281 609.308594 197.363281 603.667969 L 197.363281 600.664063 Z M 197.363281 614.953125 L 197.175781 614.953125 C 194.070313 619.832031 188.425781 621.835938 182.695313 621.835938 C 174.132813 621.835938 166.425781 616.933594 166.425781 607.703125 C 166.425781 591.914063 185.605469 591.621094 197.363281 591.621094 C 197.363281 586.648438 193.21875 583.433594 188.335938 583.433594 C 183.734375 583.433594 179.863281 585.515625 176.859375 588.910156 L 169.324219 581.195313 C 174.511719 576.292969 182.03125 573.863281 189.460938 573.863281 C 205.917969 573.863281 210.351563 582.222656 210.351563 597.460938 L 210.351563 620.691406 L 197.363281 620.691406 "/>
<path style=" stroke:none;fill-rule:nonzero;fill:rgb(65.881348%,30.195618%,5.882263%);fill-opacity:1;" d="M 219.195313 574.988281 L 232.730469 574.988281 L 232.730469 581.195313 L 232.921875 581.195313 C 234.8125 577.621094 239.40625 573.863281 246.277344 573.863281 C 260.574219 573.863281 263.214844 583.265625 263.214844 595.488281 L 263.214844 620.691406 L 249.109375 620.691406 L 249.109375 598.3125 C 249.109375 593.042969 249 586.273438 241.765625 586.273438 C 234.433594 586.273438 233.292969 592.011719 233.292969 597.933594 L 233.292969 620.691406 L 219.195313 620.691406 "/>
<path style=" stroke:none;fill-rule:nonzero;fill:rgb(65.881348%,30.195618%,5.882263%);fill-opacity:1;" d="M 273.191406 549.585938 L 287.300781 549.585938 L 287.300781 593.042969 L 302.921875 574.988281 L 320.222656 574.988281 L 302.0625 595.582031 L 320.699219 620.691406 L 302.921875 620.691406 L 287.492188 597.558594 L 287.300781 597.558594 L 287.300781 620.691406 L 273.191406 620.691406 "/>
<path style=" stroke:none;fill-rule:nonzero;fill:rgb(13.699341%,12.199402%,12.5%);fill-opacity:1;" d="M 176.21875 143.648438 L 281.34375 143.648438 L 281.34375 111.871094 L 176.21875 111.871094 Z M 176.21875 143.648438 "/>
<path style=" stroke:none;fill-rule:nonzero;fill:rgb(65.881348%,30.195618%,5.882263%);fill-opacity:1;" d="M 1102.898438 317.71875 L 567.113281 75.746094 L 281.34375 201.597656 L 281.34375 150.660156 L 176.214844 150.660156 L 176.214844 250.457031 L 31.210938 317.832031 L 67.347656 317.832031 L 109.683594 303.898438 L 109.683594 318.367188 L 1024.519531 318.367188 L 1024.519531 303.898438 L 1067.710938 317.832031 "/>
<path style=" stroke:none;fill-rule:evenodd;fill:rgb(13.699341%,12.199402%,12.5%);fill-opacity:1;" d="M 109.726563 534.085938 L 1025.136719 534.085938 L 1025.136719 329.277344 L 109.726563 329.277344 Z M 109.726563 534.085938 "/>
<path style=" stroke:none;fill-rule:nonzero;fill:rgb(100%,100%,100%);fill-opacity:1;" d="M 195.394531 438.878906 L 263.78125 438.878906 L 263.78125 417.359375 L 195.394531 417.359375 L 195.394531 386.019531 L 268.394531 386.019531 L 268.394531 364.152344 L 160.011719 364.152344 L 160.011719 496.503906 L 270.84375 496.503906 L 270.84375 474.523438 L 195.394531 474.523438 "/>
<path style=" stroke:none;fill-rule:nonzero;fill:rgb(100%,100%,100%);fill-opacity:1;" d="M 368.695313 478.632813 C 341.789063 478.632813 327.21875 461.800781 327.21875 429.234375 C 327.21875 397.246094 342.171875 380.691406 368.695313 380.691406 C 394.972656 380.691406 409.945313 397.398438 409.945313 429.234375 C 409.945313 461.800781 395.605469 478.632813 368.695313 478.632813 M 445.34375 427.316406 C 445.34375 386.246094 415.824219 362.109375 368.695313 362.109375 C 320.769531 362.109375 290.613281 387.914063 290.613281 429.960938 C 290.613281 450.476563 297.886719 468.007813 309.847656 478.8125 C 324.601563 492.921875 342.5625 498.054688 368.695313 498.441406 L 370.152344 498.441406 C 382.238281 498.441406 394.386719 496.503906 406.28125 496.503906 L 451.410156 496.503906 L 451.410156 476.226563 L 422.441406 476.226563 C 436.636719 466.402344 445.34375 448.695313 445.34375 427.316406 "/>
<path style=" stroke:none;fill-rule:nonzero;fill:rgb(100%,100%,100%);fill-opacity:1;" d="M 578.753906 446.277344 C 578.753906 467.085938 567.898438 476.914063 543.421875 476.914063 C 518.953125 476.914063 506.980469 467.285156 506.980469 447.636719 L 506.980469 364.152344 L 472.214844 364.152344 L 472.214844 445.5625 C 472.214844 481.527344 494.664063 498.617188 542.167969 498.617188 C 589.296875 498.617188 612.378906 481.238281 612.378906 445.5625 L 612.378906 364.152344 L 578.753906 364.152344 L 578.753906 446.277344 "/>
<path style=" stroke:none;fill-rule:nonzero;fill:rgb(100%,100%,100%);fill-opacity:1;" d="M 643.109375 496.503906 L 677.667969 496.503906 L 677.667969 364.152344 L 643.109375 364.152344 Z M 643.109375 496.503906 "/>
<path style=" stroke:none;fill-rule:nonzero;fill:rgb(100%,100%,100%);fill-opacity:1;" d="M 696.066406 385.710938 L 744.203125 385.710938 L 744.203125 496.503906 L 779.15625 496.503906 L 779.15625 385.710938 L 827.371094 385.710938 L 827.371094 364.152344 L 696.066406 364.152344 "/>
<path style=" stroke:none;fill-rule:nonzero;fill:rgb(100%,100%,100%);fill-opacity:1;" d="M 940.191406 364.152344 L 906.449219 420.792969 L 869.019531 364.152344 L 832.203125 364.152344 L 887.375 447.636719 L 887.375 496.503906 L 922.183594 496.503906 L 922.183594 447.636719 L 976.363281 364.152344 "/>
<path style=" stroke:none;fill-rule:nonzero;fill:rgb(13.699341%,12.199402%,12.5%);fill-opacity:1;" d="M 345.660156 594.441406 C 350.53125 594.441406 354.449219 598.355469 354.449219 603.203125 C 354.449219 608.050781 350.53125 611.960938 345.660156 611.960938 C 340.816406 611.960938 336.910156 608.050781 336.910156 603.203125 C 336.910156 598.355469 340.816406 594.441406 345.660156 594.441406 "/>
<path style=" stroke:none;fill-rule:nonzero;fill:rgb(13.699341%,12.199402%,12.5%);fill-opacity:1;" d="M 381.636719 605.78125 L 368.351563 585.667969 L 374.445313 585.667969 L 384 601.085938 L 393.859375 585.667969 L 399.65625 585.667969 L 386.378906 605.78125 L 386.378906 620.730469 L 381.636719 620.730469 "/>
<path style=" stroke:none;fill-rule:nonzero;fill:rgb(13.699341%,12.199402%,12.5%);fill-opacity:1;" d="M 407.878906 617.171875 C 412.640625 617.171875 415.617188 613.742188 415.617188 609.003906 C 415.617188 604.242188 412.640625 600.824219 407.878906 600.824219 C 403.136719 600.824219 400.164063 604.242188 400.164063 609.003906 C 400.164063 613.742188 403.136719 617.171875 407.878906 617.171875 M 407.878906 596.667969 C 414.875 596.667969 420.367188 602.160156 420.367188 609.003906 C 420.367188 615.832031 414.875 621.339844 407.878906 621.339844 C 400.902344 621.339844 395.394531 615.832031 395.394531 609.003906 C 395.394531 602.160156 400.902344 596.667969 407.878906 596.667969 "/>
<path style=" stroke:none;fill-rule:nonzero;fill:rgb(13.699341%,12.199402%,12.5%);fill-opacity:1;" d="M 446.269531 620.730469 L 441.816406 620.730469 L 441.816406 617.125 L 441.71875 617.125 C 440.574219 619.59375 437.597656 621.339844 433.976563 621.339844 C 429.425781 621.339844 425.476563 618.617188 425.476563 612.378906 L 425.476563 597.261719 L 429.921875 597.261719 L 429.921875 611.128906 C 429.921875 615.542969 432.464844 617.167969 435.277344 617.167969 C 438.980469 617.167969 441.816406 614.777344 441.816406 609.339844 L 441.816406 597.261719 L 446.269531 597.261719 "/>
<path style=" stroke:none;fill-rule:nonzero;fill:rgb(13.699341%,12.199402%,12.5%);fill-opacity:1;" d="M 452.519531 597.261719 L 456.96875 597.261719 L 456.96875 600.863281 L 457.078125 600.863281 C 458.203125 598.398438 461.183594 596.667969 464.09375 596.667969 C 464.796875 596.667969 465.476563 596.773438 466.085938 596.957031 L 465.882813 601.765625 C 465.140625 601.585938 464.394531 601.429688 463.710938 601.429688 C 459.339844 601.429688 456.96875 603.792969 456.96875 608.957031 L 456.96875 620.730469 L 452.519531 620.730469 "/>
<path style=" stroke:none;fill-rule:nonzero;fill:rgb(13.699341%,12.199402%,12.5%);fill-opacity:1;" d="M 484.753906 585.664063 L 489.507813 585.664063 L 489.507813 616.296875 L 505.617188 616.296875 L 505.617188 620.730469 L 484.753906 620.730469 "/>
<path style=" stroke:none;fill-rule:nonzero;fill:rgb(13.699341%,12.199402%,12.5%);fill-opacity:1;" d="M 509.171875 597.261719 L 513.636719 597.261719 L 513.636719 620.730469 L 509.171875 620.730469 Z M 511.417969 585.589844 C 513.199219 585.589844 514.675781 587.054688 514.675781 588.828125 C 514.675781 590.613281 513.199219 592.128906 511.417969 592.128906 C 509.621094 592.128906 508.132813 590.613281 508.132813 588.828125 C 508.132813 587.054688 509.621094 585.589844 511.417969 585.589844 "/>
<path style=" stroke:none;fill-rule:nonzero;fill:rgb(13.699341%,12.199402%,12.5%);fill-opacity:1;" d="M 532.691406 603.136719 C 531.660156 601.867188 530.136719 600.824219 527.886719 600.824219 C 525.820313 600.824219 523.980469 601.765625 523.980469 603.449219 C 523.980469 606.273438 527.988281 606.675781 529.988281 607.128906 C 533.84375 608.050781 536.808594 609.546875 536.808594 613.960938 C 536.808594 619.265625 531.960938 621.339844 527.296875 621.339844 C 523.445313 621.339844 520.570313 620.347656 518.25 617.171875 L 521.613281 614.40625 C 523.046875 615.832031 524.714844 617.171875 527.296875 617.171875 C 529.589844 617.171875 532.058594 616.21875 532.058594 614.199219 C 532.058594 611.527344 528.339844 611.035156 526.410156 610.578125 C 522.601563 609.640625 519.230469 608.394531 519.230469 603.914063 C 519.230469 599.011719 523.734375 596.667969 528.148438 596.667969 C 531.273438 596.667969 534.480469 597.753906 536.171875 600.523438 "/>
<path style=" stroke:none;fill-rule:nonzero;fill:rgb(13.699341%,12.199402%,12.5%);fill-opacity:1;" d="M 554.300781 601.121094 L 547.910156 601.121094 L 547.910156 611.78125 C 547.910156 614.40625 547.910156 617.171875 551.28125 617.171875 C 552.316406 617.171875 553.539063 617.015625 554.429688 616.480469 L 554.429688 620.539063 C 553.410156 621.121094 551.335938 621.339844 550.429688 621.339844 C 543.539063 621.339844 543.441406 617.125 543.441406 613.371094 L 543.441406 601.121094 L 538.300781 601.121094 L 538.300781 597.265625 L 543.441406 597.265625 L 543.441406 590.679688 L 547.910156 590.679688 L 547.910156 597.265625 L 554.300781 597.265625 "/>
<path style=" stroke:none;fill-rule:nonzero;fill:rgb(13.699341%,12.199402%,12.5%);fill-opacity:1;" d="M 576.96875 607.070313 C 576.894531 603.136719 574.703125 600.226563 570.191406 600.226563 C 565.792969 600.226563 562.921875 603.964844 562.921875 607.070313 Z M 562.921875 610.644531 C 562.921875 614.746094 566.738281 617.46875 570.832031 617.46875 C 573.566406 617.46875 575.550781 616.089844 577.265625 613.960938 L 580.652344 616.53125 C 578.164063 619.753906 574.746094 621.339844 570.242188 621.339844 C 562.824219 621.339844 558.175781 615.984375 558.175781 609.003906 C 558.175781 601.96875 563.269531 596.667969 570.28125 596.667969 C 578.570313 596.667969 581.734375 603.007813 581.734375 609.046875 L 581.734375 610.644531 "/>
<path style=" stroke:none;fill-rule:nonzero;fill:rgb(13.699341%,12.199402%,12.5%);fill-opacity:1;" d="M 586.585938 597.261719 L 591.050781 597.261719 L 591.050781 600.863281 L 591.144531 600.863281 C 592.277344 598.398438 595.269531 596.667969 598.871094 596.667969 C 603.4375 596.667969 607.394531 599.386719 607.394531 605.640625 L 607.394531 620.730469 L 602.925781 620.730469 L 602.925781 606.878906 C 602.925781 602.453125 600.417969 600.824219 597.597656 600.824219 C 593.863281 600.824219 591.050781 603.203125 591.050781 608.652344 L 591.050781 620.730469 L 586.585938 620.730469 "/>
<path style=" stroke:none;fill-rule:nonzero;fill:rgb(13.699341%,12.199402%,12.5%);fill-opacity:1;" d="M 613.980469 597.261719 L 618.4375 597.261719 L 618.4375 620.730469 L 613.980469 620.730469 Z M 616.214844 585.589844 C 617.984375 585.589844 619.488281 587.054688 619.488281 588.828125 C 619.488281 590.613281 617.984375 592.128906 616.214844 592.128906 C 614.4375 592.128906 612.949219 590.613281 612.949219 588.828125 C 612.949219 587.054688 614.4375 585.589844 616.214844 585.589844 "/>
<path style=" stroke:none;fill-rule:nonzero;fill:rgb(13.699341%,12.199402%,12.5%);fill-opacity:1;" d="M 625.03125 597.261719 L 629.480469 597.261719 L 629.480469 600.863281 L 629.597656 600.863281 C 630.714844 598.398438 633.683594 596.667969 637.296875 596.667969 C 641.871094 596.667969 645.824219 599.386719 645.824219 605.640625 L 645.824219 620.730469 L 641.378906 620.730469 L 641.378906 606.878906 C 641.378906 602.453125 638.839844 600.824219 636.023438 600.824219 C 632.300781 600.824219 629.480469 603.203125 629.480469 608.652344 L 629.480469 620.730469 L 625.03125 620.730469 "/>
<path style=" stroke:none;fill-rule:nonzero;fill:rgb(13.699341%,12.199402%,12.5%);fill-opacity:1;" d="M 655.671875 609.003906 C 655.671875 613.742188 658.652344 616.871094 663.40625 616.871094 C 668.175781 616.871094 671.144531 613.742188 671.144531 609.003906 C 671.144531 604.242188 668.175781 600.824219 663.40625 600.824219 C 658.652344 600.824219 655.671875 604.242188 655.671875 609.003906 M 675.59375 620.539063 C 675.59375 627.625 670.445313 632.644531 662.769531 632.644531 C 658.296875 632.644531 654.597656 631.480469 651.265625 628.40625 L 654.3125 624.648438 C 656.621094 627.125 659.253906 628.480469 662.652344 628.480469 C 669.308594 628.480469 671.144531 624.304688 671.144531 620.347656 L 671.144531 616.871094 L 670.996094 616.871094 C 669.308594 619.691406 666.082031 621.03125 662.867188 621.03125 C 655.984375 621.03125 650.894531 615.832031 650.933594 609.003906 C 650.933594 602.078125 655.589844 596.667969 662.867188 596.667969 C 666.039063 596.667969 669.308594 598.09375 671.039063 600.621094 L 671.144531 600.621094 L 671.144531 597.265625 L 675.59375 597.265625 "/>
<path style=" stroke:none;fill-rule:nonzero;fill:rgb(13.699341%,12.199402%,12.5%);fill-opacity:1;" d="M 684.910156 627.269531 L 680.851563 627.269531 L 684.257813 615.09375 L 689.078125 615.09375 Z M 684.910156 627.269531 "/>
<path style=" stroke:none;fill-rule:nonzero;fill:rgb(13.699341%,12.199402%,12.5%);fill-opacity:1;" d="M 733.9375 593.257813 C 731.957031 590.679688 728.703125 589.230469 725.476563 589.230469 C 717.601563 589.230469 712.382813 595.527344 712.382813 603.492188 C 712.382813 610.878906 717.300781 617.171875 725.476563 617.171875 C 729.488281 617.171875 732.5625 615.390625 734.625 612.480469 L 738.648438 615.488281 C 737.589844 616.921875 733.402344 621.625 725.382813 621.625 C 714.238281 621.625 707.335938 612.304688 707.335938 603.492188 C 707.335938 592.605469 714.824219 584.777344 725.621094 584.777344 C 730.25 584.777344 735.085938 586.523438 737.894531 590.234375 "/>
<path style=" stroke:none;fill-rule:nonzero;fill:rgb(13.699341%,12.199402%,12.5%);fill-opacity:1;" d="M 755.441406 609.460938 C 751.246094 609.460938 746.085938 610.179688 746.085938 613.960938 C 746.085938 616.625 748.054688 617.769531 751.113281 617.769531 C 756.089844 617.769531 757.8125 614.101563 757.8125 610.921875 L 757.8125 609.460938 Z M 742.847656 600.136719 C 745.339844 597.820313 748.90625 596.667969 752.171875 596.667969 C 759.101563 596.667969 761.980469 600.425781 761.980469 604.484375 L 761.980469 616.480469 C 761.980469 618.097656 762.035156 619.484375 762.171875 620.730469 L 758.195313 620.730469 C 758.113281 619.5625 758.070313 618.359375 758.070313 617.171875 L 757.957031 617.171875 C 755.972656 620.210938 753.308594 621.339844 749.726563 621.339844 C 745.382813 621.339844 741.621094 618.839844 741.621094 614.308594 C 741.621094 608.253906 747.414063 606.171875 754.554688 606.171875 L 757.8125 606.171875 L 757.8125 605.191406 C 757.8125 602.746094 756.050781 600.230469 752.210938 600.230469 C 748.792969 600.230469 747.15625 601.6875 745.535156 602.921875 "/>
<path style=" stroke:none;fill-rule:nonzero;fill:rgb(13.699341%,12.199402%,12.5%);fill-opacity:1;" d="M 767.980469 597.261719 L 772.429688 597.261719 L 772.429688 600.863281 L 772.515625 600.863281 C 773.644531 598.398438 776.644531 596.667969 779.546875 596.667969 C 780.273438 596.667969 780.953125 596.773438 781.535156 596.957031 L 781.339844 601.765625 C 780.597656 601.585938 779.84375 601.429688 779.15625 601.429688 C 774.816406 601.429688 772.429688 603.792969 772.429688 608.957031 L 772.429688 620.730469 L 767.980469 620.730469 "/>
<path style=" stroke:none;fill-rule:nonzero;fill:rgb(13.699341%,12.199402%,12.5%);fill-opacity:1;" d="M 786.148438 597.261719 L 790.613281 597.261719 L 790.613281 620.730469 L 786.148438 620.730469 Z M 788.371094 585.589844 C 790.15625 585.589844 791.636719 587.054688 791.636719 588.828125 C 791.636719 590.613281 790.15625 592.128906 788.371094 592.128906 C 786.597656 592.128906 785.105469 590.613281 785.105469 588.828125 C 785.105469 587.054688 786.597656 585.589844 788.371094 585.589844 "/>
<path style=" stroke:none;fill-rule:nonzero;fill:rgb(13.699341%,12.199402%,12.5%);fill-opacity:1;" d="M 797.195313 597.261719 L 801.648438 597.261719 L 801.648438 600.863281 L 801.757813 600.863281 C 802.882813 598.398438 805.847656 596.667969 809.488281 596.667969 C 814.039063 596.667969 817.992188 599.386719 817.992188 605.640625 L 817.992188 620.730469 L 813.535156 620.730469 L 813.535156 606.878906 C 813.535156 602.453125 810.996094 600.824219 808.191406 600.824219 C 804.476563 600.824219 801.648438 603.203125 801.648438 608.652344 L 801.648438 620.730469 L 797.195313 620.730469 "/>
<path style=" stroke:none;fill-rule:nonzero;fill:rgb(13.699341%,12.199402%,12.5%);fill-opacity:1;" d="M 827.851563 609.003906 C 827.851563 613.742188 830.808594 616.871094 835.582031 616.871094 C 840.332031 616.871094 843.300781 613.742188 843.300781 609.003906 C 843.300781 604.242188 840.332031 600.824219 835.582031 600.824219 C 830.808594 600.824219 827.851563 604.242188 827.851563 609.003906 M 847.757813 620.539063 C 847.757813 627.625 842.59375 632.644531 834.9375 632.644531 C 830.492188 632.644531 826.773438 631.480469 823.449219 628.40625 L 826.464844 624.648438 C 828.800781 627.125 831.410156 628.480469 834.839844 628.480469 C 841.476563 628.480469 843.300781 624.304688 843.300781 620.347656 L 843.300781 616.871094 L 843.15625 616.871094 C 841.476563 619.691406 838.257813 621.03125 835.023438 621.03125 C 828.132813 621.03125 823.050781 615.832031 823.101563 609.003906 C 823.101563 602.078125 827.769531 596.667969 835.023438 596.667969 C 838.191406 596.667969 841.476563 598.09375 843.203125 600.621094 L 843.300781 600.621094 L 843.300781 597.265625 L 847.757813 597.265625 "/>
<path style=" stroke:none;fill-rule:nonzero;fill:rgb(13.699341%,12.199402%,12.5%);fill-opacity:1;" d="M 873.167969 601.121094 L 879.421875 601.121094 C 883.1875 601.121094 886.925781 600.226563 886.925781 595.472656 C 886.925781 590.726563 883.1875 589.832031 879.421875 589.832031 L 873.167969 589.832031 Z M 868.417969 585.667969 L 880.757813 585.667969 C 889.714844 585.667969 891.992188 591.074219 891.992188 595.472656 C 891.992188 599.894531 889.714844 605.289063 880.757813 605.289063 L 873.167969 605.289063 L 873.167969 620.730469 L 868.417969 620.730469 "/>
<path style=" stroke:none;fill-rule:nonzero;fill:rgb(13.699341%,12.199402%,12.5%);fill-opacity:1;" d="M 908.828125 609.460938 C 904.609375 609.460938 899.460938 610.179688 899.460938 613.960938 C 899.460938 616.625 901.449219 617.769531 904.503906 617.769531 C 909.464844 617.769531 911.199219 614.101563 911.199219 610.921875 L 911.199219 609.460938 Z M 896.246094 600.136719 C 898.71875 597.820313 902.269531 596.667969 905.550781 596.667969 C 912.503906 596.667969 915.371094 600.425781 915.371094 604.484375 L 915.371094 616.480469 C 915.371094 618.097656 915.414063 619.484375 915.578125 620.730469 L 911.613281 620.730469 C 911.5 619.5625 911.449219 618.359375 911.449219 617.171875 L 911.363281 617.171875 C 909.371094 620.210938 906.71875 621.339844 903.140625 621.339844 C 898.769531 621.339844 895.007813 618.839844 895.007813 614.308594 C 895.007813 608.253906 900.804688 606.171875 907.945313 606.171875 L 911.199219 606.171875 L 911.199219 605.191406 C 911.199219 602.746094 909.421875 600.230469 905.59375 600.230469 C 902.1875 600.230469 900.558594 601.6875 898.921875 602.921875 "/>
<path style=" stroke:none;fill-rule:nonzero;fill:rgb(13.699341%,12.199402%,12.5%);fill-opacity:1;" d="M 921.339844 597.261719 L 925.824219 597.261719 L 925.824219 600.863281 L 925.902344 600.863281 C 927.058594 598.398438 930.039063 596.667969 932.957031 596.667969 C 933.632813 596.667969 934.328125 596.773438 934.925781 596.957031 L 934.71875 601.765625 C 933.988281 601.585938 933.25 601.429688 932.554688 601.429688 C 928.183594 601.429688 925.824219 603.792969 925.824219 608.957031 L 925.824219 620.730469 L 921.339844 620.730469 "/>
<path style=" stroke:none;fill-rule:nonzero;fill:rgb(13.699341%,12.199402%,12.5%);fill-opacity:1;" d="M 951.765625 601.121094 L 945.394531 601.121094 L 945.394531 611.78125 C 945.394531 614.40625 945.394531 617.171875 948.746094 617.171875 C 949.777344 617.171875 951.027344 617.015625 951.917969 616.480469 L 951.917969 620.539063 C 950.882813 621.121094 948.8125 621.339844 947.90625 621.339844 C 941.027344 621.339844 940.914063 617.125 940.914063 613.371094 L 940.914063 601.121094 L 935.761719 601.121094 L 935.761719 597.265625 L 940.914063 597.265625 L 940.914063 590.679688 L 945.394531 590.679688 L 945.394531 597.265625 L 951.765625 597.265625 "/>
<path style=" stroke:none;fill-rule:nonzero;fill:rgb(13.699341%,12.199402%,12.5%);fill-opacity:1;" d="M 957.019531 597.261719 L 961.484375 597.261719 L 961.484375 600.863281 L 961.566406 600.863281 C 962.710938 598.398438 965.6875 596.667969 969.300781 596.667969 C 973.871094 596.667969 977.820313 599.386719 977.820313 605.640625 L 977.820313 620.730469 L 973.375 620.730469 L 973.375 606.878906 C 973.375 602.453125 970.855469 600.824219 968.007813 600.824219 C 964.308594 600.824219 961.484375 603.203125 961.484375 608.652344 L 961.484375 620.730469 L 957.019531 620.730469 "/>
<path style=" stroke:none;fill-rule:nonzero;fill:rgb(13.699341%,12.199402%,12.5%);fill-opacity:1;" d="M 1001.511719 607.070313 C 1001.398438 603.136719 999.226563 600.226563 994.695313 600.226563 C 990.308594 600.226563 987.441406 603.964844 987.441406 607.070313 Z M 987.441406 610.644531 C 987.441406 614.746094 991.25 617.46875 995.363281 617.46875 C 998.097656 617.46875 1000.070313 616.089844 1001.800781 613.960938 L 1005.171875 616.53125 C 1002.679688 619.753906 999.261719 621.339844 994.757813 621.339844 C 987.347656 621.339844 982.691406 615.984375 982.691406 609.003906 C 982.691406 601.96875 987.78125 596.667969 994.792969 596.667969 C 1003.089844 596.667969 1006.269531 603.007813 1006.269531 609.046875 L 1006.269531 610.644531 "/>
<path style=" stroke:none;fill-rule:nonzero;fill:rgb(13.699341%,12.199402%,12.5%);fill-opacity:1;" d="M 1011.101563 597.261719 L 1015.578125 597.261719 L 1015.578125 600.863281 L 1015.671875 600.863281 C 1016.808594 598.398438 1019.769531 596.667969 1022.710938 596.667969 C 1023.398438 596.667969 1024.089844 596.773438 1024.671875 596.957031 L 1024.460938 601.765625 C 1023.738281 601.585938 1022.988281 601.429688 1022.300781 601.429688 C 1017.941406 601.429688 1015.578125 603.792969 1015.578125 608.957031 L 1015.578125 620.730469 L 1011.101563 620.730469 "/>
<g clip-path="url(#clip1)" clip-rule="nonzero">
<path style="fill:none;stroke-width:2.5;stroke-linecap:butt;stroke-linejoin:miter;stroke:rgb(13.699341%,12.199402%,12.5%);stroke-opacity:1;stroke-miterlimit:4;" d="M 1.25 1.265625 L 11339.84375 1.265625 L 11339.84375 7087.867188 L 1.25 7087.867188 Z M 1.25 1.265625 " transform="matrix(0.1,0,0,-0.1,0,708.65)"/>
</g>
</g>
</svg>
